<svg xmlns="http://www.w3.org/2000/svg" viewBox="0 0 260.01 262.38" class="icon" width="1200" height="1200"><path d="M210.09 28.17C153.29-16.72 70.78-6.88 25.72 49.92a150.82 150.82 0 0 0-14.33 22.64 15.39 15.39 0 0 0 1.38-1.73 117.19 117.19 0 0 1 164.52-19.34c50.75 40.06 59.56 113.77 19.33 164.53a116.17 116.17 0 0 1-89.59 44.54A131.17 131.17 0 0 0 210.09 28.17z" fill="#231815" fill-rule="evenodd"/><path d="M130.51 41.98a104.62 104.62 0 1 0 56.27 166.25 112.8 112.8 0 0 0 12.61-20.2c-1.56 2.24-3.11 4.49-4.84 6.73-.34.35-.52.69-.86 1a18.61 18.61 0 0 1-1.73 2.07 97 97 0 1 1-61.45-155.89z" fill="#231815" fill-rule="evenodd"/><path d="M161.85 133.47a27 27 0 0 1-8.42-52.75 66.3 66.3 0 1 0 29.26 42.91 27 27 0 0 1-20.84 9.84zm-2.74 33.82a12.71 12.71 0 1 1 12.84-12.62 12.65 12.65 0 0 1-12.84 12.62z" fill="#231815" fill-rule="evenodd"/></svg>